<?xml version="1.0" encoding="utf-8" ?><svg xmlns="http://www.w3.org/2000/svg" xmlns:xlink="http://www.w3.org/1999/xlink" width="1024" height="1024" viewBox="0 0 1024 1024"><path d="M560.439 263.091L681.704 263.032C689.235 269.223 704.855 285.605 712.029 292.874L755.546 336.325L755.585 446.266C768.306 459.031 781.186 471.636 794.222 484.08C803.199 492.735 813.162 501.954 821.403 511.17C806.437 525.625 791.65 541.446 776.405 555.802C769.665 562.149 762.529 569.826 755.509 575.741L755.493 687.207C732.546 711.329 705.891 737.532 681.931 760.7C674.205 761.24 662.863 760.866 654.875 760.838L590.491 760.868C583.151 760.9 559.786 761.459 554.127 760.209C554.108 755.506 575.436 719.234 579.263 711.684C582.469 705.359 593.225 685.152 597.318 679.274C604.549 678.867 613.993 679.134 621.369 679.148L663.076 679.241C663.663 642.904 663.386 604.18 663.022 567.834C668.232 561.459 678.243 552.045 684.276 546.041C695.731 534.479 707.27 523 718.891 511.605C701.345 494.339 679.157 473.611 662.985 455.858C663.433 419.258 663.253 381.306 663.02 344.674C644.391 343.985 621.889 344.566 602.96 344.565C595.729 333.557 587.537 315.81 580.703 303.973C573.978 292.326 566.947 279.01 560.776 267.059C560.042 265.637 560.157 264.6 560.439 263.091Z"/><path d="M342.252 263.059C367.176 262.316 395.651 263.05 420.884 263L447.329 262.954C451.568 262.949 456.292 262.853 460.53 263.185C461.997 263.299 462.15 263.922 462.742 264.87C461.187 269.142 451.636 285.412 449.09 290.255C439.642 308.22 429.424 326.42 420.203 344.481C400.693 345.159 380.334 344.024 360.839 344.752L360.926 456.232C342.322 474.831 323.605 493.318 304.777 511.692C307.081 513.708 309.802 516.552 311.932 518.79C327.627 535.277 345.842 550.751 360.901 567.739C360.102 603.886 360.733 642.981 360.965 679.255C381.735 679.529 402.754 679.253 423.567 679.38C427.666 685.041 434.079 697.319 437.702 703.849C445.896 718.763 454.204 733.613 462.627 748.398C464.201 751.288 468.088 757.297 467.692 760.286C465.511 761.457 356.731 761.036 342.059 760.955C337.457 757.02 331.418 750.57 326.907 746.092L297.414 716.701C291.018 710.334 272.558 693.209 267.863 686.972C268.587 651.187 268.14 613.105 267.99 577.216C257.983 568.24 247.153 556.747 237.471 547.201C225.775 535.67 213.319 524.139 201.851 512.523L267.951 446.686C268.335 434.44 268.051 420.843 268.052 408.519L268.036 336.6C271.34 332.578 277.368 326.885 281.174 323.076L305.474 298.781L327.436 276.839C331.177 273.112 338.239 265.8 342.252 263.059Z"/></svg>