<?xml version="1.0" encoding="utf-8" ?><svg xmlns="http://www.w3.org/2000/svg" xmlns:xlink="http://www.w3.org/1999/xlink" width="1024" height="1024" viewBox="0 0 1024 1024"><path d="M759.557 271.458C761.625 272.005 761.993 271.995 763.668 273.223C764.968 275.278 764.707 282.044 764.644 284.699C763.538 331.092 765.878 378.334 764.463 424.604C760.116 430.265 749.155 440.831 743.599 446.476C731.041 459.175 718.562 471.951 706.163 484.805L541.102 655.675L496.501 702.095C490.938 707.904 466.542 734.604 460.849 737.577C458.122 737.443 450.116 728.825 447.741 726.499C406.139 685.749 364.776 644.495 322.619 604.329L282.423 565.205C277.857 560.82 262.348 546.649 259.322 542.061C259.195 540.63 259.406 540.603 260.135 539.296C262.948 537.252 314.697 525.671 324.089 523.349L359.255 514.797C365.239 513.353 374.156 510.939 380.037 510.144C383.709 512.146 392.46 521.285 395.846 524.581L439.079 566.385C443.29 570.465 454.3 582.045 458.239 584.481C461.705 584.678 490.755 553.193 494.576 549.234L567.216 472.682L707.986 324.856L740.89 290.187C745.427 285.385 754.609 274.58 759.557 271.458Z"/></svg>