<?xml version="1.0" encoding="utf-8" ?><svg xmlns="http://www.w3.org/2000/svg" xmlns:xlink="http://www.w3.org/1999/xlink" width="1024" height="1024" viewBox="0 0 1024 1024"><path d="M294.824 321.268C298.531 321.622 308.592 321.331 312.674 321.326L347.67 321.334L462.182 321.365L721.326 321.418C768.596 321.41 817.329 320.779 864.432 321.477C862.389 328.424 859.518 335.802 857.208 342.757L843.473 385.077C841.267 391.702 839.111 398.343 837.007 405C821.55 405.328 799.128 402.85 783.146 401.72C745.433 399.102 707.742 396.174 670.077 392.936L337.515 364.868C331.313 358.528 297.209 325.433 294.824 321.268Z"/><path d="M295.01 469.632C315.193 470.359 333.072 469.595 353.062 469.567L465.1 469.556L806.117 469.543C808.023 481.647 812.373 501.111 815.429 512.693C809.072 519.461 801.751 526.547 795.217 533.294C788.531 540.171 781.793 546.998 775.002 553.773C767.912 553.416 760.627 552.427 753.521 551.966C727.55 550.281 701.811 547.162 675.951 544.642L538.221 531.768L395.852 518.527C379.243 516.933 362.865 515.87 346.285 513.864L315.165 487.249C310.613 483.428 298.516 473.656 295.01 469.632Z"/><path d="M294.822 618.412C308.566 617.974 324.824 618.387 338.784 618.392L426.669 618.454L659.984 618.465C668.883 633.489 677.704 646.651 687.055 661.222C681.766 669.129 676.383 676.972 670.908 684.75C667.017 690.329 663.224 695.976 659.531 701.688C652.52 700.512 644.713 699.866 637.56 699.008C622.93 697.271 608.31 695.446 593.702 693.533L410.035 669.773C394.789 667.799 362.648 664.504 349.152 661.458C347.496 661.084 297.52 620.732 294.822 618.412Z"/><path d="M337.108 368.421C342.166 368.602 349.168 369.511 354.43 369.982L391.377 373.152L530.349 384.647L662.816 395.657C698.893 398.403 737.158 400.709 773.124 404.531C764.048 405.501 755.727 404.472 747.616 405.128C716.607 404.372 682.814 405.051 651.577 405.006L401.255 405.441C365.858 405.453 329.212 405.938 293.896 405.316C305.027 394.383 324.715 378.724 337.108 368.421Z"/><path d="M346.087 517.694C427.51 524.409 510.057 532.809 591.471 540.416L678.482 548.319C694.449 549.754 713.231 550.961 728.971 553.175C725.555 555.479 715.915 552.908 710.205 554.294L435.528 554.031L342.804 554.033C327.029 554.034 309.509 554.459 293.912 553.951C304.941 545.538 317.385 538.109 328.551 529.756C334.047 525.645 340.309 521.307 346.087 517.694Z"/><path d="M294.347 701.916L349.42 665.465C359.076 667.488 373.293 668.865 383.346 670.026C397.123 671.609 410.883 673.338 424.624 675.214L489.746 683.774C534.851 689.265 582.014 694.531 626.939 701.181C625.176 702.246 621.931 702.235 619.738 702.411C610.509 702.832 598.082 702.453 588.658 702.428L517.062 702.004L294.347 701.916Z"/><path d="M290.827 618.757C300.225 626.023 309.643 634.803 318.984 642.246C327.993 649.423 336.971 656.344 345.883 663.67L324.261 678.081C313.629 684.989 301.286 693.371 290.787 700.588C290.558 692.93 290.921 682.927 290.938 675.072L290.827 618.757Z"/><path d="M290.494 470.165C293.587 471.839 309.338 486.366 312.917 489.586C322.703 498.391 332.813 506.831 342.698 515.487C335.836 519.943 328.394 525.569 321.681 530.416C313.612 536.416 298.041 546.391 291.059 552.515C290.816 548.641 290.859 544.13 290.938 540.218C291.407 516.867 290.59 493.482 290.494 470.165Z"/><path d="M290.703 322.29C294.662 324.96 330.576 362.483 333.026 366.213C331.288 369.573 317.134 380.917 313.011 384.663L290.506 404.194C290.334 382.069 291.756 359.535 290.783 337.329C290.566 332.359 290.396 327.248 290.703 322.29Z"/><path d="M219.885 503.2L220.385 503.486C220.495 504.224 206.932 552.61 205.547 558.643C198 551.481 190.403 543.674 183.016 536.302C177.098 530.365 164.853 518.688 159.957 512.616C179.381 510.507 200.425 505.683 219.885 503.2Z"/><path d="M219.927 652.204L220.251 652.376C220.295 654.082 218.659 658.561 218.117 660.729C214.205 676.379 209.291 691.703 205.212 707.312C198.152 699.917 190.973 692.636 183.678 685.473C177.435 679.128 165.082 667.889 160.018 661.735C164.835 660.483 174.782 659.233 180.049 658.432C193.359 656.466 206.652 654.39 219.927 652.204Z"/><path d="M218.589 355.216C218.851 355.143 219.437 355.184 219.745 355.187C220.404 357.717 213.757 378.676 212.671 383.161C210.938 390.326 208.312 398.995 206.582 406.343C206.372 407.238 205.909 407.795 205.162 408.301C202.773 408.262 187.266 391.539 184.25 388.495C177.564 381.752 166.344 371.036 160.347 364.047C165.29 362.952 173.165 361.97 178.327 361.17L218.589 355.216Z"/><path d="M205.798 612.419C207.843 614.819 219.039 644.118 220.698 648.483C206.767 651.445 187.755 654.119 173.508 656.331C169.144 657.072 164.417 657.67 160.01 658.313C175.357 643.899 190.424 627.149 205.798 612.419Z"/><path d="M205.511 463.822C207.543 465.18 219.153 495.554 220.791 499.703L174.25 507.164C169.373 508.225 164.654 508.646 159.632 509.778C175.249 494.972 190.334 479.137 205.511 463.822Z"/><path d="M205.755 315.489C210.85 326.829 215.821 339.54 220.631 351.101C205.993 353.874 190.278 356.021 175.494 358.397C170.521 359.257 165.538 360.06 160.546 360.803L205.755 315.489Z"/><path d="M224.125 503.24C229.476 504.383 249.15 510.53 253.992 513.046C244.487 522.637 234.879 532.124 225.169 541.505C219.609 546.8 214.635 552.14 208.849 557.313C212.687 540.53 219.532 520.63 224.125 503.24Z"/><path d="M223.99 652.165C231.18 653.904 247.155 659.04 254.03 661.785C244.336 671.454 234.549 681.029 224.669 690.509L208.921 706.2C209.306 703.844 209.838 701.512 210.49 699.216C214.949 683.52 220.152 668.035 223.99 652.165Z"/><path d="M224.096 354.455C232.906 357.944 244.416 360.507 253.928 364.248C244.387 373.875 234.748 383.404 225.012 392.833L209.021 408.678C212.855 391.74 219.607 372.117 224.096 354.455Z"/><path d="M209.898 614.269C212.11 615.242 249.672 653.843 253.419 658.126C247.087 656.694 230.175 651.102 224.063 648.628C220.166 639.46 213.815 622.122 209.898 614.269Z"/><path d="M210.071 465.729C214.789 468.74 229.654 485.137 234.283 489.908C239.172 494.946 248.381 503.907 252.783 509.038L223.923 499.814L210.071 465.729Z"/><path d="M210.251 317.346C212.459 318.951 222.303 329.102 224.824 331.7C233.983 341.142 244.127 350.818 252.887 360.542C243.794 358.085 232.709 354.333 223.846 351.024C221.061 342.195 214.028 327.423 210.251 317.346Z"/><path d="M728.971 553.175C732.764 553.439 737.532 553.625 741.154 554.417C732.437 554.73 718.88 554.712 710.205 554.294C715.915 552.908 725.555 555.479 728.971 553.175Z"/><path fill="#7E7E81" fill-opacity="0.60784316" d="M773.124 404.531C776.137 404.413 777.429 404.237 780.405 405.053C779.958 405.454 749.759 405.882 747.616 405.128C755.727 404.472 764.048 405.501 773.124 404.531Z"/><path fill="#1E1D1F" fill-opacity="0.89411765" d="M626.939 701.181C629.765 701.42 633.666 701.604 636.281 702.325C631.513 702.789 624.675 702.488 619.738 702.411C621.931 702.235 625.176 702.246 626.939 701.181Z"/></svg>