<?xml version="1.0" encoding="utf-8" ?><svg xmlns="http://www.w3.org/2000/svg" xmlns:xlink="http://www.w3.org/1999/xlink" width="1024" height="1024" viewBox="0 0 1024 1024"><path d="M455.042 336.072L646.729 336.104L717.664 336.019C731.634 335.998 747.873 335.639 761.639 336.335C767.287 340.062 778.378 351.759 779.466 358.86C780.27 364.109 779.913 373.243 779.908 378.835L779.924 416.045L780.01 571.949L760.813 587.032C766.515 598.618 774.879 616.624 779.847 629.062C780.486 630.663 780.084 644.713 780.063 647.75L780.046 671.983C743.96 672.409 707.035 671.977 670.882 671.979L455.153 672.027L326.62 671.991L286.365 672.013C278.353 672.028 270.169 672.139 262.209 671.893C257.742 671.659 255.315 671.661 251.666 669.104C242.55 662.716 243.608 654.094 243.819 644.232C243.906 640.109 243.904 635.451 243.914 631.118L243.921 572.599L243.961 433.015C243.909 406.113 243.457 379.124 243.989 352.216C244.173 342.927 251.571 337.319 260.341 336.167C263.174 335.804 273.073 335.996 276.304 336.005L307.208 336.069L363.383 336.083C374.146 336.087 385.884 335.874 396.568 336.308C404.99 343.931 414.204 352.401 422.29 360.327C432.799 353.325 444.762 343.637 455.042 336.072ZM334.423 404.355C313.273 403.368 288.586 404.338 267.063 403.98L266.931 511.463C266.882 519.014 267.368 536.906 266.524 543.622C266.031 547.538 256.439 564.013 254.158 569.483C258.453 571.843 262.782 574.144 267.141 576.384C266.705 599.704 266.797 625.619 267.025 649.003C293.681 648.982 322.764 648.344 349.203 648.964C353.324 653.128 358.658 658.81 362.922 662.612C368.203 659.727 384.997 649.917 389.81 649.283C393.73 648.766 408.983 648.98 413.831 648.984L465.582 649.02L657.25 649.003L756.566 648.972C757.127 628.212 757.045 607.355 756.937 586.584C756.621 525.776 757.524 464.838 756.844 404.042L498.967 404.276L411.76 404.256C399.264 404.253 379.968 403.643 367.856 404.339C362.337 399.944 352.373 391.496 346.722 387.866C341.979 393.215 338.388 398.467 334.423 404.355Z"/><path d="M330.944 462.21C340.869 470.309 351.646 480.209 361.378 488.733C379.375 504.363 397.287 520.092 415.114 535.916C404.238 537.693 390.948 538.895 379.873 540.185C382.16 545.181 399.808 576.676 399.249 579.116L379.471 589.745C376.992 585.817 373.647 579.048 371.365 574.766L358.68 551.197C348.911 559.747 340.163 568.648 330.577 577.232C331.612 539.641 330.891 499.973 330.944 462.21Z"/><path d="M589.279 514.564C598.872 513.783 617.901 514.374 628.302 514.369L704.512 514.419L704.666 532.84C700.547 532.562 693.617 532.798 689.276 532.811C651.093 532.662 611.301 533.617 573.332 532.776C578.051 526.615 583.963 520.212 589.279 514.564Z"/><path d="M514.234 556.047C550.369 555.586 587.314 556.048 623.515 556.012C627.651 560.904 633.659 568.114 637.198 573.327L636.872 574.014C601.649 574.485 566.292 573.746 531.058 574.105C525.511 574.162 519.992 574.044 514.444 574.303C514.084 568.295 514.213 562.079 514.234 556.047Z"/><path d="M456.769 514.23L535.591 514.378C537.886 516.809 551.983 531.224 552.243 532.846C521.151 533.451 487.621 533.095 456.471 532.893C456.533 529.344 456.186 516.952 456.769 514.23Z"/><path d="M581.684 472.249C590.282 472.225 600.546 471.942 609.01 472.431L609.036 490.428L562.75 490.517L533.648 490.555C536.029 486.492 544.298 476.311 547.525 472.58C556.578 471.871 572.122 472.259 581.684 472.249Z"/><path d="M456.452 472.524C477.728 472.519 499.819 472.077 520.996 472.476C518.429 475.888 515.808 479.259 513.135 482.589C511.045 485.15 508.969 487.842 506.913 490.441C490.536 490.828 472.958 490.477 456.492 490.443C456.585 484.47 456.572 478.496 456.452 472.524Z"/><path d="M456.573 555.786C468.179 556.324 482.233 556.01 494.018 556.005C494.051 558.98 494.543 572.496 493.481 574.105L456.555 574.078C457.055 569.124 456.747 560.838 456.573 555.786Z"/></svg>