<svg width="647" height="326" viewBox="0 0 647 326" fill="none" xmlns="http://www.w3.org/2000/svg">
<path d="M117.814 0.562028L60.8144 55.226C60.421 55.6031 60.1987 56.1245 60.1987 56.6695L60.1992 92.4573C60.1992 93.0058 59.974 93.5302 59.5761 93.9079L0.627154 149.866C-0.683414 151.11 0.19707 153.316 2.00408 153.316H58.1987C59.3032 153.316 60.1987 154.212 60.1987 155.316V270.983C60.1987 271.516 60.412 272.028 60.7911 272.403L113.616 324.739C113.989 325.109 114.493 325.317 115.019 325.319L187.693 325.514C188.8 325.516 189.699 324.62 189.699 323.514V268.316C189.699 267.212 188.803 266.316 187.699 266.316H124.19C123.089 266.316 122.195 265.426 122.19 264.325L121.708 156.325C121.703 155.217 122.6 154.316 123.708 154.316H152.386C152.907 154.316 153.408 154.113 153.781 153.75L206.172 102.75C207.458 101.498 206.572 99.3164 204.777 99.3164H123.199C122.094 99.3164 121.199 98.421 121.199 97.3164V2.00551C121.199 0.243804 119.086 -0.65736 117.814 0.562028Z" fill="#F2F2F2"/>
<path d="M405.658 99.8164H270.002C269.487 99.8164 268.991 100.015 268.619 100.371L212.317 154.226C211.922 154.603 211.699 155.125 211.699 155.671V187.479C211.699 188.015 211.914 188.528 212.296 188.904L262.903 238.741C263.277 239.11 263.781 239.316 264.307 239.316H344.473C345.824 239.316 346.786 240.628 346.381 241.917L339.136 264.928C338.876 265.755 338.111 266.321 337.243 266.327L271.489 266.811C270.982 266.814 270.494 267.011 270.126 267.361L213.829 320.867C212.52 322.111 213.4 324.316 215.207 324.316H351.887C352.408 324.316 352.908 324.113 353.281 323.75L406.583 271.916C406.976 271.533 407.195 271.005 407.188 270.456L406.71 233.657C406.703 233.119 406.48 232.607 406.091 232.236L352.279 180.87C351.907 180.515 351.412 180.316 350.898 180.316H274.435C272.949 180.316 271.982 178.752 272.646 177.422L282.646 157.422C282.985 156.744 283.678 156.316 284.435 156.316H349.906C350.415 156.316 350.906 156.122 351.277 155.772L407.029 103.272C408.347 102.031 407.469 99.8164 405.658 99.8164Z" fill="#F2F2F2"/>
<path d="M485.699 147.469V2.92608C485.699 1.17623 483.611 0.270111 482.333 1.46554L424.333 55.7236C423.929 56.1018 423.699 56.6306 423.699 57.1841V203.598C423.699 205.364 425.821 206.263 427.09 205.035L485.09 148.906C485.479 148.529 485.699 148.011 485.699 147.469Z" fill="#F2F2F2"/>
<path d="M568.115 100.395L425.287 241.734C424.911 242.107 424.697 242.614 424.694 243.144L424.211 323.804C424.205 324.914 425.102 325.816 426.211 325.816H484.699C485.804 325.816 486.699 324.921 486.699 323.816V246.546C486.699 244.778 488.824 243.88 490.092 245.111L572.117 324.751C572.49 325.114 572.99 325.316 573.51 325.316H644.356C646.14 325.316 647.031 323.158 645.767 321.899L535.145 211.756C534.351 210.966 534.361 209.677 535.167 208.9L644.636 103.256C645.93 102.006 645.046 99.8164 643.247 99.8164H569.522C568.995 99.8164 568.489 100.024 568.115 100.395Z" fill="#F2F2F2"/>
</svg>
